<?xml version="1.0" encoding="UTF-8" standalone="no"?>
<!-- Created with Inkscape (http://www.inkscape.org/) -->

<svg
   xmlns:dc="http://purl.org/dc/elements/1.1/"
   xmlns:cc="http://creativecommons.org/ns#"
   xmlns:rdf="http://www.w3.org/1999/02/22-rdf-syntax-ns#"
   xmlns:svg="http://www.w3.org/2000/svg"
   xmlns="http://www.w3.org/2000/svg"
   xmlns:sodipodi="http://sodipodi.sourceforge.net/DTD/sodipodi-0.dtd"
   xmlns:inkscape="http://www.inkscape.org/namespaces/inkscape"
   version="1.1"
   id="svg2"
   xml:space="preserve"
   width="449.33334"
   height="304"
   viewBox="0 0 449.33334 304"
   sodipodi:docname="mesh_ht_ink.svg"
   inkscape:version="0.92.5 (2060ec1f9f, 2020-04-08)"><metadata
     id="metadata8"><rdf:RDF><cc:Work
         rdf:about=""><dc:format>image/svg+xml</dc:format><dc:type
           rdf:resource="http://purl.org/dc/dcmitype/StillImage" /><dc:title /></cc:Work></rdf:RDF></metadata><defs
     id="defs6" /><sodipodi:namedview
     pagecolor="#ffffff"
     bordercolor="#666666"
     borderopacity="1"
     objecttolerance="10"
     gridtolerance="10"
     guidetolerance="10"
     inkscape:pageopacity="0"
     inkscape:pageshadow="2"
     inkscape:window-width="1366"
     inkscape:window-height="704"
     id="namedview4"
     showgrid="false"
     inkscape:zoom="1.72"
     inkscape:cx="111.06036"
     inkscape:cy="65.305483"
     inkscape:window-x="0"
     inkscape:window-y="27"
     inkscape:window-maximized="1"
     inkscape:current-layer="g10" /><g
     id="g10"
     inkscape:groupmode="layer"
     inkscape:label="mesh_ht"
     transform="matrix(1.3333333,0,0,-1.3333333,0,304)"><g
   id="g12"
   transform="scale(0.1)"><path
     d="m -490,-489.996 h 4198.8 v 3143.76 H -490 Z"
     style="fill:#ffffff;fill-opacity:1;fill-rule:nonzero;stroke:none"
     id="path14"
     inkscape:connector-curvature="0" /><path
     d="m -490,-489.996 h 4198.8 v 3143.76 H -490 Z"
     style="fill:#ffffff;fill-opacity:1;fill-rule:nonzero;stroke:none"
     id="path16"
     inkscape:connector-curvature="0" /><path
     d="M 59.0938,55.4727 H 3309.41 V 2222.36 H 59.0938 V 1680.63 1138.91 597.195"
     style="fill:#ffffff;fill-opacity:1;fill-rule:nonzero;stroke:none"
     id="path18"
     inkscape:connector-curvature="0" /><path
     d="M 59.0938,55.4727 H 600.813"
     style="fill:none;stroke:#13beb8;stroke-width:4.99722004;stroke-linecap:butt;stroke-linejoin:round;stroke-miterlimit:10;stroke-dasharray:none;stroke-opacity:1"
     id="path20"
     inkscape:connector-curvature="0" /><path
     d="M 59.0938,597.195 H 600.813"
     style="fill:none;stroke:#13beb8;stroke-width:4.99722004;stroke-linecap:butt;stroke-linejoin:round;stroke-miterlimit:10;stroke-dasharray:none;stroke-opacity:1"
     id="path22"
     inkscape:connector-curvature="0" /><path
     d="M 59.0938,1138.91 H 600.813"
     style="fill:none;stroke:#13beb8;stroke-width:4.99722004;stroke-linecap:butt;stroke-linejoin:round;stroke-miterlimit:10;stroke-dasharray:none;stroke-opacity:1"
     id="path24"
     inkscape:connector-curvature="0" /><path
     d="M 59.0938,1680.63 H 600.813"
     style="fill:none;stroke:#13beb8;stroke-width:4.99722004;stroke-linecap:butt;stroke-linejoin:round;stroke-miterlimit:10;stroke-dasharray:none;stroke-opacity:1"
     id="path26"
     inkscape:connector-curvature="0" /><path
     d="M 59.0938,2222.36 H 600.813"
     style="fill:none;stroke:#13beb8;stroke-width:4.99722004;stroke-linecap:butt;stroke-linejoin:round;stroke-miterlimit:10;stroke-dasharray:none;stroke-opacity:1"
     id="path28"
     inkscape:connector-curvature="0" /><path
     d="M 600.813,55.4727 H 1142.54"
     style="fill:none;stroke:#13beb8;stroke-width:4.99722004;stroke-linecap:butt;stroke-linejoin:round;stroke-miterlimit:10;stroke-dasharray:none;stroke-opacity:1"
     id="path30"
     inkscape:connector-curvature="0" /><path
     d="M 600.813,597.195 H 1142.54"
     style="fill:none;stroke:#13beb8;stroke-width:4.99722004;stroke-linecap:butt;stroke-linejoin:round;stroke-miterlimit:10;stroke-dasharray:none;stroke-opacity:1"
     id="path32"
     inkscape:connector-curvature="0" /><path
     d="M 600.813,1138.91 H 1142.54"
     style="fill:none;stroke:#13beb8;stroke-width:4.99722004;stroke-linecap:butt;stroke-linejoin:round;stroke-miterlimit:10;stroke-dasharray:none;stroke-opacity:1"
     id="path34"
     inkscape:connector-curvature="0" /><path
     d="M 600.813,1680.63 H 1142.54"
     style="fill:none;stroke:#13beb8;stroke-width:4.99722004;stroke-linecap:butt;stroke-linejoin:round;stroke-miterlimit:10;stroke-dasharray:none;stroke-opacity:1"
     id="path36"
     inkscape:connector-curvature="0" /><path
     d="M 600.813,2222.36 H 1142.54"
     style="fill:none;stroke:#13beb8;stroke-width:4.99722004;stroke-linecap:butt;stroke-linejoin:round;stroke-miterlimit:10;stroke-dasharray:none;stroke-opacity:1"
     id="path38"
     inkscape:connector-curvature="0" /><path
     d="m 1142.54,55.4727 h 541.71"
     style="fill:none;stroke:#13beb8;stroke-width:4.99722004;stroke-linecap:butt;stroke-linejoin:round;stroke-miterlimit:10;stroke-dasharray:none;stroke-opacity:1"
     id="path40"
     inkscape:connector-curvature="0" /><path
     d="m 1142.54,597.195 h 541.71"
     style="fill:none;stroke:#13beb8;stroke-width:4.99722004;stroke-linecap:butt;stroke-linejoin:round;stroke-miterlimit:10;stroke-dasharray:none;stroke-opacity:1"
     id="path42"
     inkscape:connector-curvature="0" /><path
     d="m 1142.54,1138.91 h 541.71"
     style="fill:none;stroke:#13beb8;stroke-width:4.99722004;stroke-linecap:butt;stroke-linejoin:round;stroke-miterlimit:10;stroke-dasharray:none;stroke-opacity:1"
     id="path44"
     inkscape:connector-curvature="0" /><path
     d="m 1142.54,1680.63 h 541.71"
     style="fill:none;stroke:#13beb8;stroke-width:4.99722004;stroke-linecap:butt;stroke-linejoin:round;stroke-miterlimit:10;stroke-dasharray:none;stroke-opacity:1"
     id="path46"
     inkscape:connector-curvature="0" /><path
     d="m 1142.54,2222.36 h 541.71"
     style="fill:none;stroke:#13beb8;stroke-width:4.99722004;stroke-linecap:butt;stroke-linejoin:round;stroke-miterlimit:10;stroke-dasharray:none;stroke-opacity:1"
     id="path48"
     inkscape:connector-curvature="0" /><path
     d="m 1684.25,55.4727 h 541.72"
     style="fill:none;stroke:#13beb8;stroke-width:4.99722004;stroke-linecap:butt;stroke-linejoin:round;stroke-miterlimit:10;stroke-dasharray:none;stroke-opacity:1"
     id="path50"
     inkscape:connector-curvature="0" /><path
     d="m 1684.25,597.195 h 541.72"
     style="fill:none;stroke:#13beb8;stroke-width:4.99722004;stroke-linecap:butt;stroke-linejoin:round;stroke-miterlimit:10;stroke-dasharray:none;stroke-opacity:1"
     id="path52"
     inkscape:connector-curvature="0" /><path
     d="m 1684.25,1138.91 h 541.72"
     style="fill:none;stroke:#13beb8;stroke-width:4.99722004;stroke-linecap:butt;stroke-linejoin:round;stroke-miterlimit:10;stroke-dasharray:none;stroke-opacity:1"
     id="path54"
     inkscape:connector-curvature="0" /><path
     d="m 1684.25,1680.63 h 541.72"
     style="fill:none;stroke:#13beb8;stroke-width:4.99722004;stroke-linecap:butt;stroke-linejoin:round;stroke-miterlimit:10;stroke-dasharray:none;stroke-opacity:1"
     id="path56"
     inkscape:connector-curvature="0" /><path
     d="m 1684.25,2222.36 h 541.72"
     style="fill:none;stroke:#13beb8;stroke-width:4.99722004;stroke-linecap:butt;stroke-linejoin:round;stroke-miterlimit:10;stroke-dasharray:none;stroke-opacity:1"
     id="path58"
     inkscape:connector-curvature="0" /><path
     d="M 2225.97,55.4727 H 2767.7"
     style="fill:none;stroke:#13beb8;stroke-width:4.99722004;stroke-linecap:butt;stroke-linejoin:round;stroke-miterlimit:10;stroke-dasharray:none;stroke-opacity:1"
     id="path60"
     inkscape:connector-curvature="0" /><path
     d="M 2225.97,597.195 H 2767.7"
     style="fill:none;stroke:#13beb8;stroke-width:4.99722004;stroke-linecap:butt;stroke-linejoin:round;stroke-miterlimit:10;stroke-dasharray:none;stroke-opacity:1"
     id="path62"
     inkscape:connector-curvature="0" /><path
     d="M 2225.97,1138.91 H 2767.7"
     style="fill:none;stroke:#13beb8;stroke-width:4.99722004;stroke-linecap:butt;stroke-linejoin:round;stroke-miterlimit:10;stroke-dasharray:none;stroke-opacity:1"
     id="path64"
     inkscape:connector-curvature="0" /><path
     d="M 2225.97,1680.63 H 2767.7"
     style="fill:none;stroke:#13beb8;stroke-width:4.99722004;stroke-linecap:butt;stroke-linejoin:round;stroke-miterlimit:10;stroke-dasharray:none;stroke-opacity:1"
     id="path66"
     inkscape:connector-curvature="0" /><path
     d="M 2225.97,2222.36 H 2767.7"
     style="fill:none;stroke:#13beb8;stroke-width:4.99722004;stroke-linecap:butt;stroke-linejoin:round;stroke-miterlimit:10;stroke-dasharray:none;stroke-opacity:1"
     id="path68"
     inkscape:connector-curvature="0" /><path
     d="m 2767.7,55.4727 h 541.71"
     style="fill:none;stroke:#13beb8;stroke-width:4.99722004;stroke-linecap:butt;stroke-linejoin:round;stroke-miterlimit:10;stroke-dasharray:none;stroke-opacity:1"
     id="path70"
     inkscape:connector-curvature="0" /><path
     d="m 2767.7,597.195 h 541.71"
     style="fill:none;stroke:#13beb8;stroke-width:4.99722004;stroke-linecap:butt;stroke-linejoin:round;stroke-miterlimit:10;stroke-dasharray:none;stroke-opacity:1"
     id="path72"
     inkscape:connector-curvature="0" /><path
     d="m 2767.7,1138.91 h 541.71"
     style="fill:none;stroke:#13beb8;stroke-width:4.99722004;stroke-linecap:butt;stroke-linejoin:round;stroke-miterlimit:10;stroke-dasharray:none;stroke-opacity:1"
     id="path74"
     inkscape:connector-curvature="0" /><path
     d="m 2767.7,1680.63 h 541.71"
     style="fill:none;stroke:#13beb8;stroke-width:4.99722004;stroke-linecap:butt;stroke-linejoin:round;stroke-miterlimit:10;stroke-dasharray:none;stroke-opacity:1"
     id="path76"
     inkscape:connector-curvature="0" /><path
     d="m 2767.7,2222.36 h 541.71"
     style="fill:none;stroke:#13beb8;stroke-width:4.99722004;stroke-linecap:butt;stroke-linejoin:round;stroke-miterlimit:10;stroke-dasharray:none;stroke-opacity:1"
     id="path78"
     inkscape:connector-curvature="0" /><path
     d="M 59.0938,55.4727 V 597.195"
     style="fill:none;stroke:#13beb8;stroke-width:4.99722004;stroke-linecap:butt;stroke-linejoin:round;stroke-miterlimit:10;stroke-dasharray:none;stroke-opacity:1"
     id="path80"
     inkscape:connector-curvature="0" /><path
     d="M 59.0938,597.195 V 1138.91"
     style="fill:none;stroke:#13beb8;stroke-width:4.99722004;stroke-linecap:butt;stroke-linejoin:round;stroke-miterlimit:10;stroke-dasharray:none;stroke-opacity:1"
     id="path82"
     inkscape:connector-curvature="0" /><path
     d="m 59.0938,1138.91 v 541.72"
     style="fill:none;stroke:#13beb8;stroke-width:4.99722004;stroke-linecap:butt;stroke-linejoin:round;stroke-miterlimit:10;stroke-dasharray:none;stroke-opacity:1"
     id="path84"
     inkscape:connector-curvature="0" /><path
     d="m 59.0938,1680.63 v 541.73"
     style="fill:none;stroke:#13beb8;stroke-width:4.99722004;stroke-linecap:butt;stroke-linejoin:round;stroke-miterlimit:10;stroke-dasharray:none;stroke-opacity:1"
     id="path86"
     inkscape:connector-curvature="0" /><path
     d="M 600.813,55.4727 V 597.195"
     style="fill:none;stroke:#13beb8;stroke-width:4.99722004;stroke-linecap:butt;stroke-linejoin:round;stroke-miterlimit:10;stroke-dasharray:none;stroke-opacity:1"
     id="path88"
     inkscape:connector-curvature="0" /><path
     d="M 600.813,597.195 V 1138.91"
     style="fill:none;stroke:#13beb8;stroke-width:4.99722004;stroke-linecap:butt;stroke-linejoin:round;stroke-miterlimit:10;stroke-dasharray:none;stroke-opacity:1"
     id="path90"
     inkscape:connector-curvature="0" /><path
     d="m 600.813,1138.91 v 541.72"
     style="fill:none;stroke:#13beb8;stroke-width:4.99722004;stroke-linecap:butt;stroke-linejoin:round;stroke-miterlimit:10;stroke-dasharray:none;stroke-opacity:1"
     id="path92"
     inkscape:connector-curvature="0" /><path
     d="m 600.813,1680.63 v 541.73"
     style="fill:none;stroke:#13beb8;stroke-width:4.99722004;stroke-linecap:butt;stroke-linejoin:round;stroke-miterlimit:10;stroke-dasharray:none;stroke-opacity:1"
     id="path94"
     inkscape:connector-curvature="0" /><path
     d="M 1142.54,55.4727 V 597.195"
     style="fill:none;stroke:#13beb8;stroke-width:4.99722004;stroke-linecap:butt;stroke-linejoin:round;stroke-miterlimit:10;stroke-dasharray:none;stroke-opacity:1"
     id="path96"
     inkscape:connector-curvature="0" /><path
     d="M 1142.54,597.195 V 1138.91"
     style="fill:none;stroke:#13beb8;stroke-width:4.99722004;stroke-linecap:butt;stroke-linejoin:round;stroke-miterlimit:10;stroke-dasharray:none;stroke-opacity:1"
     id="path98"
     inkscape:connector-curvature="0" /><path
     d="m 1142.54,1138.91 v 541.72"
     style="fill:none;stroke:#13beb8;stroke-width:4.99722004;stroke-linecap:butt;stroke-linejoin:round;stroke-miterlimit:10;stroke-dasharray:none;stroke-opacity:1"
     id="path100"
     inkscape:connector-curvature="0" /><path
     d="m 1142.54,1680.63 v 541.73"
     style="fill:none;stroke:#13beb8;stroke-width:4.99722004;stroke-linecap:butt;stroke-linejoin:round;stroke-miterlimit:10;stroke-dasharray:none;stroke-opacity:1"
     id="path102"
     inkscape:connector-curvature="0" /><path
     d="M 1684.25,55.4727 V 597.195"
     style="fill:none;stroke:#13beb8;stroke-width:4.99722004;stroke-linecap:butt;stroke-linejoin:round;stroke-miterlimit:10;stroke-dasharray:none;stroke-opacity:1"
     id="path104"
     inkscape:connector-curvature="0" /><path
     d="M 1684.25,597.195 V 1138.91"
     style="fill:none;stroke:#13beb8;stroke-width:4.99722004;stroke-linecap:butt;stroke-linejoin:round;stroke-miterlimit:10;stroke-dasharray:none;stroke-opacity:1"
     id="path106"
     inkscape:connector-curvature="0" /><path
     d="m 1684.25,1138.91 v 541.72"
     style="fill:none;stroke:#13beb8;stroke-width:4.99722004;stroke-linecap:butt;stroke-linejoin:round;stroke-miterlimit:10;stroke-dasharray:none;stroke-opacity:1"
     id="path108"
     inkscape:connector-curvature="0" /><path
     d="m 1684.25,1680.63 v 541.73"
     style="fill:none;stroke:#13beb8;stroke-width:4.99722004;stroke-linecap:butt;stroke-linejoin:round;stroke-miterlimit:10;stroke-dasharray:none;stroke-opacity:1"
     id="path110"
     inkscape:connector-curvature="0" /><path
     d="M 2225.97,55.4727 V 597.195"
     style="fill:none;stroke:#13beb8;stroke-width:4.99722004;stroke-linecap:butt;stroke-linejoin:round;stroke-miterlimit:10;stroke-dasharray:none;stroke-opacity:1"
     id="path112"
     inkscape:connector-curvature="0" /><path
     d="M 2225.97,597.195 V 1138.91"
     style="fill:none;stroke:#13beb8;stroke-width:4.99722004;stroke-linecap:butt;stroke-linejoin:round;stroke-miterlimit:10;stroke-dasharray:none;stroke-opacity:1"
     id="path114"
     inkscape:connector-curvature="0" /><path
     d="m 2225.97,1138.91 v 541.72"
     style="fill:none;stroke:#13beb8;stroke-width:4.99722004;stroke-linecap:butt;stroke-linejoin:round;stroke-miterlimit:10;stroke-dasharray:none;stroke-opacity:1"
     id="path116"
     inkscape:connector-curvature="0" /><path
     d="m 2225.97,1680.63 v 541.73"
     style="fill:none;stroke:#13beb8;stroke-width:4.99722004;stroke-linecap:butt;stroke-linejoin:round;stroke-miterlimit:10;stroke-dasharray:none;stroke-opacity:1"
     id="path118"
     inkscape:connector-curvature="0" /><path
     d="M 2767.7,55.4727 V 597.195"
     style="fill:none;stroke:#13beb8;stroke-width:4.99722004;stroke-linecap:butt;stroke-linejoin:round;stroke-miterlimit:10;stroke-dasharray:none;stroke-opacity:1"
     id="path120"
     inkscape:connector-curvature="0" /><path
     d="M 2767.7,597.195 V 1138.91"
     style="fill:none;stroke:#13beb8;stroke-width:4.99722004;stroke-linecap:butt;stroke-linejoin:round;stroke-miterlimit:10;stroke-dasharray:none;stroke-opacity:1"
     id="path122"
     inkscape:connector-curvature="0" /><path
     d="m 2767.7,1138.91 v 541.72"
     style="fill:none;stroke:#13beb8;stroke-width:4.99722004;stroke-linecap:butt;stroke-linejoin:round;stroke-miterlimit:10;stroke-dasharray:none;stroke-opacity:1"
     id="path124"
     inkscape:connector-curvature="0" /><path
     d="m 2767.7,1680.63 v 541.73"
     style="fill:none;stroke:#13beb8;stroke-width:4.99722004;stroke-linecap:butt;stroke-linejoin:round;stroke-miterlimit:10;stroke-dasharray:none;stroke-opacity:1"
     id="path126"
     inkscape:connector-curvature="0" /><path
     d="M 3309.41,55.4727 V 597.195"
     style="fill:none;stroke:#13beb8;stroke-width:4.99722004;stroke-linecap:butt;stroke-linejoin:round;stroke-miterlimit:10;stroke-dasharray:none;stroke-opacity:1"
     id="path128"
     inkscape:connector-curvature="0" /><path
     d="M 3309.41,597.195 V 1138.91"
     style="fill:none;stroke:#13beb8;stroke-width:4.99722004;stroke-linecap:butt;stroke-linejoin:round;stroke-miterlimit:10;stroke-dasharray:none;stroke-opacity:1"
     id="path130"
     inkscape:connector-curvature="0" /><path
     d="m 3309.41,1138.91 v 541.72"
     style="fill:none;stroke:#13beb8;stroke-width:4.99722004;stroke-linecap:butt;stroke-linejoin:round;stroke-miterlimit:10;stroke-dasharray:none;stroke-opacity:1"
     id="path132"
     inkscape:connector-curvature="0" /><path
     d="m 3309.41,1680.63 v 541.73"
     style="fill:none;stroke:#13beb8;stroke-width:4.99722004;stroke-linecap:butt;stroke-linejoin:round;stroke-miterlimit:10;stroke-dasharray:none;stroke-opacity:1"
     id="path134"
     inkscape:connector-curvature="0" /><path
     d="m 59.0977,82.9727 c 15.1914,0 27.5,-12.3125 27.5,-27.5039 v 0 c 0,-15.1915 -12.3086,-27.5 -27.5,-27.5 -15.1914,0 -27.5039,12.3085 -27.5039,27.5 0,15.1914 12.3125,27.5039 27.5039,27.5039 z m 0,4.9961 c -17.9532,0 -32.5,-14.5469 -32.5,-32.5 0,-17.9493 14.5468,-32.5 32.5,-32.5 17.9492,0 32.5,14.5507 32.5,32.5 v 0 c 0,17.9531 -14.5508,32.5 -32.5,32.5"
     style="fill:#000000;fill-opacity:1;fill-rule:nonzero;stroke:none"
     id="path136"
     inkscape:connector-curvature="0" /><path
     d="m 59.0977,624.691 c 15.1914,0 27.5,-12.308 27.5,-27.5 v 0 c 0,-15.191 -12.3086,-27.503 -27.5,-27.503 -15.1914,0 -27.5039,12.312 -27.5039,27.503 0,15.192 12.3125,27.5 27.5039,27.5 z m 0,5 c -17.9532,0 -32.5,-14.55 -32.5,-32.5 0,-17.949 14.5468,-32.5 32.5,-32.5 17.9492,0 32.5,14.551 32.5,32.5 v 0 c 0,17.95 -14.5508,32.5 -32.5,32.5"
     style="fill:#000000;fill-opacity:1;fill-rule:nonzero;stroke:none"
     id="path138"
     inkscape:connector-curvature="0" /><path
     d="m 59.0977,1166.41 c 15.1914,0 27.5,-12.31 27.5,-27.5 v 0 c 0,-15.19 -12.3086,-27.5 -27.5,-27.5 -15.1914,0 -27.5039,12.31 -27.5039,27.5 0,15.19 12.3125,27.5 27.5039,27.5 z m 0,5 c -17.9532,0 -32.5,-14.55 -32.5,-32.5 0,-17.95 14.5468,-32.5 32.5,-32.5 17.9492,0 32.5,14.55 32.5,32.5 v 0 c 0,17.95 -14.5508,32.5 -32.5,32.5"
     style="fill:#000000;fill-opacity:1;fill-rule:nonzero;stroke:none"
     id="path140"
     inkscape:connector-curvature="0" /><path
     d="m 59.0977,1708.13 c 15.1914,0 27.5,-12.31 27.5,-27.5 v 0 c 0,-15.19 -12.3086,-27.5 -27.5,-27.5 -15.1914,0 -27.5039,12.31 -27.5039,27.5 0,15.19 12.3125,27.5 27.5039,27.5 z m 0,5 c -17.9532,0 -32.5,-14.55 -32.5,-32.5 0,-17.95 14.5468,-32.5 32.5,-32.5 17.9492,0 32.5,14.55 32.5,32.5 v 0 c 0,17.95 -14.5508,32.5 -32.5,32.5"
     style="fill:#000000;fill-opacity:1;fill-rule:nonzero;stroke:none"
     id="path142"
     inkscape:connector-curvature="0" /><path
     d="m 59.0977,2249.86 c 15.1914,0 27.5,-12.32 27.5,-27.51 v 0 c 0,-15.19 -12.3086,-27.5 -27.5,-27.5 -15.1914,0 -27.5039,12.31 -27.5039,27.5 0,15.19 12.3125,27.51 27.5039,27.51 z m 0,4.99 c -17.9532,0 -32.5,-14.55 -32.5,-32.5 0,-17.95 14.5468,-32.5 32.5,-32.5 17.9492,0 32.5,14.55 32.5,32.5 v 0 c 0,17.95 -14.5508,32.5 -32.5,32.5"
     style="fill:#000000;fill-opacity:1;fill-rule:nonzero;stroke:none"
     id="path144"
     inkscape:connector-curvature="0" /><path
     d="m 600.816,82.9727 c 15.192,0 27.504,-12.3125 27.504,-27.5039 v 0 c 0,-15.1915 -12.312,-27.5 -27.504,-27.5 -15.191,0 -27.503,12.3085 -27.503,27.5 0,15.1914 12.312,27.5039 27.503,27.5039 z m 0,4.9961 c -17.949,0 -32.5,-14.5469 -32.5,-32.5 0,-17.9493 14.551,-32.5 32.5,-32.5 17.95,0 32.5,14.5507 32.5,32.5 v 0 c 0,17.9531 -14.55,32.5 -32.5,32.5"
     style="fill:#000000;fill-opacity:1;fill-rule:nonzero;stroke:none"
     id="path146"
     inkscape:connector-curvature="0" /><path
     d="m 600.816,624.691 c 15.192,0 27.504,-12.308 27.504,-27.5 v 0 c 0,-15.191 -12.312,-27.503 -27.504,-27.503 -15.191,0 -27.503,12.312 -27.503,27.503 0,15.192 12.312,27.5 27.503,27.5 z m 0,5 c -17.949,0 -32.5,-14.55 -32.5,-32.5 0,-17.949 14.551,-32.5 32.5,-32.5 17.95,0 32.5,14.551 32.5,32.5 v 0 c 0,17.95 -14.55,32.5 -32.5,32.5"
     style="fill:#000000;fill-opacity:1;fill-rule:nonzero;stroke:none"
     id="path148"
     inkscape:connector-curvature="0" /><path
     d="m 600.816,1166.41 c 15.192,0 27.504,-12.31 27.504,-27.5 v 0 c 0,-15.19 -12.312,-27.5 -27.504,-27.5 -15.191,0 -27.503,12.31 -27.503,27.5 0,15.19 12.312,27.5 27.503,27.5 z m 0,5 c -17.949,0 -32.5,-14.55 -32.5,-32.5 0,-17.95 14.551,-32.5 32.5,-32.5 17.95,0 32.5,14.55 32.5,32.5 v 0 c 0,17.95 -14.55,32.5 -32.5,32.5"
     style="fill:#000000;fill-opacity:1;fill-rule:nonzero;stroke:none"
     id="path150"
     inkscape:connector-curvature="0" /><path
     d="m 600.816,1708.13 c 15.192,0 27.504,-12.31 27.504,-27.5 v 0 c 0,-15.19 -12.312,-27.5 -27.504,-27.5 -15.191,0 -27.503,12.31 -27.503,27.5 0,15.19 12.312,27.5 27.503,27.5 z m 0,5 c -17.949,0 -32.5,-14.55 -32.5,-32.5 0,-17.95 14.551,-32.5 32.5,-32.5 17.95,0 32.5,14.55 32.5,32.5 v 0 c 0,17.95 -14.55,32.5 -32.5,32.5"
     style="fill:#000000;fill-opacity:1;fill-rule:nonzero;stroke:none"
     id="path152"
     inkscape:connector-curvature="0" /><path
     d="m 600.816,2249.86 c 15.192,0 27.504,-12.32 27.504,-27.51 v 0 c 0,-15.19 -12.312,-27.5 -27.504,-27.5 -15.191,0 -27.503,12.31 -27.503,27.5 0,15.19 12.312,27.51 27.503,27.51 z m 0,4.99 c -17.949,0 -32.5,-14.55 -32.5,-32.5 0,-17.95 14.551,-32.5 32.5,-32.5 17.95,0 32.5,14.55 32.5,32.5 v 0 c 0,17.95 -14.55,32.5 -32.5,32.5"
     style="fill:#000000;fill-opacity:1;fill-rule:nonzero;stroke:none"
     id="path154"
     inkscape:connector-curvature="0" /><path
     d="m 1142.54,82.9727 c 15.19,0 27.5,-12.3125 27.5,-27.5039 v 0 c 0,-15.1915 -12.31,-27.5 -27.5,-27.5 -15.19,0 -27.5,12.3085 -27.5,27.5 0,15.1914 12.31,27.5039 27.5,27.5039 z m 0,4.9961 c -17.95,0 -32.5,-14.5469 -32.5,-32.5 0,-17.9493 14.55,-32.5 32.5,-32.5 17.95,0 32.5,14.5507 32.5,32.5 v 0 c 0,17.9531 -14.55,32.5 -32.5,32.5"
     style="fill:#000000;fill-opacity:1;fill-rule:nonzero;stroke:none"
     id="path156"
     inkscape:connector-curvature="0" /><path
     d="m 1142.54,624.691 c 15.19,0 27.5,-12.308 27.5,-27.5 v 0 c 0,-15.191 -12.31,-27.503 -27.5,-27.503 -15.19,0 -27.5,12.312 -27.5,27.503 0,15.192 12.31,27.5 27.5,27.5 z m 0,5 c -17.95,0 -32.5,-14.55 -32.5,-32.5 0,-17.949 14.55,-32.5 32.5,-32.5 17.95,0 32.5,14.551 32.5,32.5 v 0 c 0,17.95 -14.55,32.5 -32.5,32.5"
     style="fill:#000000;fill-opacity:1;fill-rule:nonzero;stroke:none"
     id="path158"
     inkscape:connector-curvature="0" /><path
     d="m 1142.54,1166.41 c 15.19,0 27.5,-12.31 27.5,-27.5 v 0 c 0,-15.19 -12.31,-27.5 -27.5,-27.5 -15.19,0 -27.5,12.31 -27.5,27.5 0,15.19 12.31,27.5 27.5,27.5 z m 0,5 c -17.95,0 -32.5,-14.55 -32.5,-32.5 0,-17.95 14.55,-32.5 32.5,-32.5 17.95,0 32.5,14.55 32.5,32.5 v 0 c 0,17.95 -14.55,32.5 -32.5,32.5"
     style="fill:#000000;fill-opacity:1;fill-rule:nonzero;stroke:none"
     id="path160"
     inkscape:connector-curvature="0" /><path
     d="m 1142.54,1708.13 c 15.19,0 27.5,-12.31 27.5,-27.5 v 0 c 0,-15.19 -12.31,-27.5 -27.5,-27.5 -15.19,0 -27.5,12.31 -27.5,27.5 0,15.19 12.31,27.5 27.5,27.5 z m 0,5 c -17.95,0 -32.5,-14.55 -32.5,-32.5 0,-17.95 14.55,-32.5 32.5,-32.5 17.95,0 32.5,14.55 32.5,32.5 v 0 c 0,17.95 -14.55,32.5 -32.5,32.5"
     style="fill:#000000;fill-opacity:1;fill-rule:nonzero;stroke:none"
     id="path162"
     inkscape:connector-curvature="0" /><path
     d="m 1142.54,2249.86 c 15.19,0 27.5,-12.32 27.5,-27.51 v 0 c 0,-15.19 -12.31,-27.5 -27.5,-27.5 -15.19,0 -27.5,12.31 -27.5,27.5 0,15.19 12.31,27.51 27.5,27.51 z m 0,4.99 c -17.95,0 -32.5,-14.55 -32.5,-32.5 0,-17.95 14.55,-32.5 32.5,-32.5 17.95,0 32.5,14.55 32.5,32.5 v 0 c 0,17.95 -14.55,32.5 -32.5,32.5"
     style="fill:#000000;fill-opacity:1;fill-rule:nonzero;stroke:none"
     id="path164"
     inkscape:connector-curvature="0" /><path
     d="m 1684.26,82.9727 c 15.19,0 27.5,-12.3125 27.5,-27.5039 v 0 c 0,-15.1915 -12.31,-27.5 -27.5,-27.5 -15.19,0 -27.51,12.3085 -27.51,27.5 0,15.1914 12.32,27.5039 27.51,27.5039 z m 0,4.9961 c -17.95,0 -32.5,-14.5469 -32.5,-32.5 0,-17.9493 14.55,-32.5 32.5,-32.5 17.95,0 32.5,14.5507 32.5,32.5 v 0 c 0,17.9531 -14.55,32.5 -32.5,32.5"
     style="fill:#000000;fill-opacity:1;fill-rule:nonzero;stroke:none"
     id="path166"
     inkscape:connector-curvature="0" /><path
     d="m 1684.26,624.691 c 15.19,0 27.5,-12.308 27.5,-27.5 v 0 c 0,-15.191 -12.31,-27.503 -27.5,-27.503 -15.19,0 -27.51,12.312 -27.51,27.503 0,15.192 12.32,27.5 27.51,27.5 z m 0,5 c -17.95,0 -32.5,-14.55 -32.5,-32.5 0,-17.949 14.55,-32.5 32.5,-32.5 17.95,0 32.5,14.551 32.5,32.5 v 0 c 0,17.95 -14.55,32.5 -32.5,32.5"
     style="fill:#000000;fill-opacity:1;fill-rule:nonzero;stroke:none"
     id="path168"
     inkscape:connector-curvature="0" /><path
     d="m 1684.26,1166.41 c 15.19,0 27.5,-12.31 27.5,-27.5 v 0 c 0,-15.19 -12.31,-27.5 -27.5,-27.5 -15.19,0 -27.51,12.31 -27.51,27.5 0,15.19 12.32,27.5 27.51,27.5 z m 0,5 c -17.95,0 -32.5,-14.55 -32.5,-32.5 0,-17.95 14.55,-32.5 32.5,-32.5 17.95,0 32.5,14.55 32.5,32.5 v 0 c 0,17.95 -14.55,32.5 -32.5,32.5"
     style="fill:#000000;fill-opacity:1;fill-rule:nonzero;stroke:none"
     id="path170"
     inkscape:connector-curvature="0" /><path
     d="m 1684.26,1708.13 c 15.19,0 27.5,-12.31 27.5,-27.5 v 0 c 0,-15.19 -12.31,-27.5 -27.5,-27.5 -15.19,0 -27.51,12.31 -27.51,27.5 0,15.19 12.32,27.5 27.51,27.5 z m 0,5 c -17.95,0 -32.5,-14.55 -32.5,-32.5 0,-17.95 14.55,-32.5 32.5,-32.5 17.95,0 32.5,14.55 32.5,32.5 v 0 c 0,17.95 -14.55,32.5 -32.5,32.5"
     style="fill:#000000;fill-opacity:1;fill-rule:nonzero;stroke:none"
     id="path172"
     inkscape:connector-curvature="0" /><path
     d="m 1684.26,2249.86 c 15.19,0 27.5,-12.32 27.5,-27.51 v 0 c 0,-15.19 -12.31,-27.5 -27.5,-27.5 -15.19,0 -27.51,12.31 -27.51,27.5 0,15.19 12.32,27.51 27.51,27.51 z m 0,4.99 c -17.95,0 -32.5,-14.55 -32.5,-32.5 0,-17.95 14.55,-32.5 32.5,-32.5 17.95,0 32.5,14.55 32.5,32.5 v 0 c 0,17.95 -14.55,32.5 -32.5,32.5"
     style="fill:#000000;fill-opacity:1;fill-rule:nonzero;stroke:none"
     id="path174"
     inkscape:connector-curvature="0" /><path
     d="m 2225.98,82.9727 c 15.19,0 27.5,-12.3125 27.5,-27.5039 v 0 c 0,-15.1915 -12.31,-27.5 -27.5,-27.5 -15.19,0 -27.5,12.3085 -27.5,27.5 0,15.1914 12.31,27.5039 27.5,27.5039 z m 0,4.9961 c -17.95,0 -32.5,-14.5469 -32.5,-32.5 0,-17.9493 14.55,-32.5 32.5,-32.5 17.95,0 32.5,14.5507 32.5,32.5 v 0 c 0,17.9531 -14.55,32.5 -32.5,32.5"
     style="fill:#000000;fill-opacity:1;fill-rule:nonzero;stroke:none"
     id="path176"
     inkscape:connector-curvature="0" /><path
     d="m 2225.98,624.691 c 15.19,0 27.5,-12.308 27.5,-27.5 v 0 c 0,-15.191 -12.31,-27.503 -27.5,-27.503 -15.19,0 -27.5,12.312 -27.5,27.503 0,15.192 12.31,27.5 27.5,27.5 z m 0,5 c -17.95,0 -32.5,-14.55 -32.5,-32.5 0,-17.949 14.55,-32.5 32.5,-32.5 17.95,0 32.5,14.551 32.5,32.5 v 0 c 0,17.95 -14.55,32.5 -32.5,32.5"
     style="fill:#000000;fill-opacity:1;fill-rule:nonzero;stroke:none"
     id="path178"
     inkscape:connector-curvature="0" /><path
     d="m 2225.98,1166.41 c 15.19,0 27.5,-12.31 27.5,-27.5 v 0 c 0,-15.19 -12.31,-27.5 -27.5,-27.5 -15.19,0 -27.5,12.31 -27.5,27.5 0,15.19 12.31,27.5 27.5,27.5 z m 0,5 c -17.95,0 -32.5,-14.55 -32.5,-32.5 0,-17.95 14.55,-32.5 32.5,-32.5 17.95,0 32.5,14.55 32.5,32.5 v 0 c 0,17.95 -14.55,32.5 -32.5,32.5"
     style="fill:#000000;fill-opacity:1;fill-rule:nonzero;stroke:none"
     id="path180"
     inkscape:connector-curvature="0" /><path
     d="m 2225.98,1708.13 c 15.19,0 27.5,-12.31 27.5,-27.5 v 0 c 0,-15.19 -12.31,-27.5 -27.5,-27.5 -15.19,0 -27.5,12.31 -27.5,27.5 0,15.19 12.31,27.5 27.5,27.5 z m 0,5 c -17.95,0 -32.5,-14.55 -32.5,-32.5 0,-17.95 14.55,-32.5 32.5,-32.5 17.95,0 32.5,14.55 32.5,32.5 v 0 c 0,17.95 -14.55,32.5 -32.5,32.5"
     style="fill:#000000;fill-opacity:1;fill-rule:nonzero;stroke:none"
     id="path182"
     inkscape:connector-curvature="0" /><path
     d="m 2225.98,2249.86 c 15.19,0 27.5,-12.32 27.5,-27.51 v 0 c 0,-15.19 -12.31,-27.5 -27.5,-27.5 -15.19,0 -27.5,12.31 -27.5,27.5 0,15.19 12.31,27.51 27.5,27.51 z m 0,4.99 c -17.95,0 -32.5,-14.55 -32.5,-32.5 0,-17.95 14.55,-32.5 32.5,-32.5 17.95,0 32.5,14.55 32.5,32.5 v 0 c 0,17.95 -14.55,32.5 -32.5,32.5"
     style="fill:#000000;fill-opacity:1;fill-rule:nonzero;stroke:none"
     id="path184"
     inkscape:connector-curvature="0" /><path
     d="m 2767.7,82.9727 c 15.19,0 27.5,-12.3125 27.5,-27.5039 v 0 c 0,-15.1915 -12.31,-27.5 -27.5,-27.5 -15.19,0 -27.5,12.3085 -27.5,27.5 0,15.1914 12.31,27.5039 27.5,27.5039 z m 0,4.9961 c -17.95,0 -32.5,-14.5469 -32.5,-32.5 0,-17.9493 14.55,-32.5 32.5,-32.5 17.95,0 32.5,14.5507 32.5,32.5 v 0 c 0,17.9531 -14.55,32.5 -32.5,32.5"
     style="fill:#000000;fill-opacity:1;fill-rule:nonzero;stroke:none"
     id="path186"
     inkscape:connector-curvature="0" /><path
     d="m 2767.7,624.691 c 15.19,0 27.5,-12.308 27.5,-27.5 v 0 c 0,-15.191 -12.31,-27.503 -27.5,-27.503 -15.19,0 -27.5,12.312 -27.5,27.503 0,15.192 12.31,27.5 27.5,27.5 z m 0,5 c -17.95,0 -32.5,-14.55 -32.5,-32.5 0,-17.949 14.55,-32.5 32.5,-32.5 17.95,0 32.5,14.551 32.5,32.5 v 0 c 0,17.95 -14.55,32.5 -32.5,32.5"
     style="fill:#000000;fill-opacity:1;fill-rule:nonzero;stroke:none"
     id="path188"
     inkscape:connector-curvature="0" /><path
     d="m 2767.7,1166.41 c 15.19,0 27.5,-12.31 27.5,-27.5 v 0 c 0,-15.19 -12.31,-27.5 -27.5,-27.5 -15.19,0 -27.5,12.31 -27.5,27.5 0,15.19 12.31,27.5 27.5,27.5 z m 0,5 c -17.95,0 -32.5,-14.55 -32.5,-32.5 0,-17.95 14.55,-32.5 32.5,-32.5 17.95,0 32.5,14.55 32.5,32.5 v 0 c 0,17.95 -14.55,32.5 -32.5,32.5"
     style="fill:#000000;fill-opacity:1;fill-rule:nonzero;stroke:none"
     id="path190"
     inkscape:connector-curvature="0" /><path
     d="m 2767.7,1708.13 c 15.19,0 27.5,-12.31 27.5,-27.5 v 0 c 0,-15.19 -12.31,-27.5 -27.5,-27.5 -15.19,0 -27.5,12.31 -27.5,27.5 0,15.19 12.31,27.5 27.5,27.5 z m 0,5 c -17.95,0 -32.5,-14.55 -32.5,-32.5 0,-17.95 14.55,-32.5 32.5,-32.5 17.95,0 32.5,14.55 32.5,32.5 v 0 c 0,17.95 -14.55,32.5 -32.5,32.5"
     style="fill:#000000;fill-opacity:1;fill-rule:nonzero;stroke:none"
     id="path192"
     inkscape:connector-curvature="0" /><path
     d="m 2767.7,2249.86 c 15.19,0 27.5,-12.32 27.5,-27.51 v 0 c 0,-15.19 -12.31,-27.5 -27.5,-27.5 -15.19,0 -27.5,12.31 -27.5,27.5 0,15.19 12.31,27.51 27.5,27.51 z m 0,4.99 c -17.95,0 -32.5,-14.55 -32.5,-32.5 0,-17.95 14.55,-32.5 32.5,-32.5 17.95,0 32.5,14.55 32.5,32.5 v 0 c 0,17.95 -14.55,32.5 -32.5,32.5"
     style="fill:#000000;fill-opacity:1;fill-rule:nonzero;stroke:none"
     id="path194"
     inkscape:connector-curvature="0" /><path
     d="m 3309.42,82.9727 c 15.19,0 27.5,-12.3125 27.5,-27.5039 v 0 c 0,-15.1915 -12.31,-27.5 -27.5,-27.5 -15.19,0 -27.5,12.3085 -27.5,27.5 0,15.1914 12.31,27.5039 27.5,27.5039 z m 0,4.9961 c -17.95,0 -32.5,-14.5469 -32.5,-32.5 0,-17.9493 14.55,-32.5 32.5,-32.5 17.95,0 32.5,14.5507 32.5,32.5 v 0 c 0,17.9531 -14.55,32.5 -32.5,32.5"
     style="fill:#000000;fill-opacity:1;fill-rule:nonzero;stroke:none"
     id="path196"
     inkscape:connector-curvature="0" /><path
     d="m 3309.42,624.691 c 15.19,0 27.5,-12.308 27.5,-27.5 v 0 c 0,-15.191 -12.31,-27.503 -27.5,-27.503 -15.19,0 -27.5,12.312 -27.5,27.503 0,15.192 12.31,27.5 27.5,27.5 z m 0,5 c -17.95,0 -32.5,-14.55 -32.5,-32.5 0,-17.949 14.55,-32.5 32.5,-32.5 17.95,0 32.5,14.551 32.5,32.5 v 0 c 0,17.95 -14.55,32.5 -32.5,32.5"
     style="fill:#000000;fill-opacity:1;fill-rule:nonzero;stroke:none"
     id="path198"
     inkscape:connector-curvature="0" /><path
     d="m 3309.42,1166.41 c 15.19,0 27.5,-12.31 27.5,-27.5 v 0 c 0,-15.19 -12.31,-27.5 -27.5,-27.5 -15.19,0 -27.5,12.31 -27.5,27.5 0,15.19 12.31,27.5 27.5,27.5 z m 0,5 c -17.95,0 -32.5,-14.55 -32.5,-32.5 0,-17.95 14.55,-32.5 32.5,-32.5 17.95,0 32.5,14.55 32.5,32.5 v 0 c 0,17.95 -14.55,32.5 -32.5,32.5"
     style="fill:#000000;fill-opacity:1;fill-rule:nonzero;stroke:none"
     id="path200"
     inkscape:connector-curvature="0" /><path
     d="m 3309.42,1708.13 c 15.19,0 27.5,-12.31 27.5,-27.5 v 0 c 0,-15.19 -12.31,-27.5 -27.5,-27.5 -15.19,0 -27.5,12.31 -27.5,27.5 0,15.19 12.31,27.5 27.5,27.5 z m 0,5 c -17.95,0 -32.5,-14.55 -32.5,-32.5 0,-17.95 14.55,-32.5 32.5,-32.5 17.95,0 32.5,14.55 32.5,32.5 v 0 c 0,17.95 -14.55,32.5 -32.5,32.5"
     style="fill:#000000;fill-opacity:1;fill-rule:nonzero;stroke:none"
     id="path202"
     inkscape:connector-curvature="0" /><path
     d="m 3309.42,2249.86 c 15.19,0 27.5,-12.32 27.5,-27.51 v 0 c 0,-15.19 -12.31,-27.5 -27.5,-27.5 -15.19,0 -27.5,12.31 -27.5,27.5 0,15.19 12.31,27.51 27.5,27.51 z m 0,4.99 c -17.95,0 -32.5,-14.55 -32.5,-32.5 0,-17.95 14.55,-32.5 32.5,-32.5 17.95,0 32.5,14.55 32.5,32.5 v 0 c 0,17.95 -14.55,32.5 -32.5,32.5"
     style="fill:#000000;fill-opacity:1;fill-rule:nonzero;stroke:none"
     id="path204"
     inkscape:connector-curvature="0" /></g><text
   xml:space="preserve"
   style="font-style:normal;font-variant:normal;font-weight:normal;font-stretch:normal;font-size:12px;line-height:11.25;font-family:'Times New Roman';-inkscape-font-specification:'Times New Roman, ';letter-spacing:0px;word-spacing:0px;fill:#000000;fill-opacity:1;stroke:none;stroke-width:0.75"
   x="-23.546513"
   y="-132.55815"
   id="text1013"
   transform="scale(1,-1)"><tspan
     sodipodi:role="line"
     id="tspan1011"
     x="-23.546513"
     y="-61.9067"
     style="stroke-width:0.75" /></text>

<text
   xml:space="preserve"
   style="font-style:normal;font-variant:normal;font-weight:normal;font-stretch:normal;font-size:12px;line-height:11.25;font-family:'Times New Roman';-inkscape-font-specification:'Times New Roman, ';letter-spacing:0px;word-spacing:0px;fill:#000000;fill-opacity:1;stroke:none;stroke-width:0.75"
   x="173.98256"
   y="-174.85466"
   id="text1017"
   transform="scale(1,-1)"><tspan
     sodipodi:role="line"
     id="tspan1015"
     x="173.98256"
     y="-174.85466"
     style="stroke-width:0.75">i,j+1</tspan></text>

<text
   xml:space="preserve"
   style="font-style:normal;font-variant:normal;font-weight:normal;font-stretch:normal;font-size:12px;line-height:11.25;font-family:'Times New Roman';-inkscape-font-specification:'Times New Roman, ';letter-spacing:0px;word-spacing:0px;fill:#000000;fill-opacity:1;stroke:none;stroke-width:0.75"
   x="175.29071"
   y="-46.22094"
   id="text1021"
   transform="scale(1,-1)"><tspan
     sodipodi:role="line"
     id="tspan1019"
     x="175.29071"
     y="-46.22094"
     style="stroke-width:0.75">i,j-1</tspan></text>

<text
   xml:space="preserve"
   style="font-style:normal;font-variant:normal;font-weight:normal;font-stretch:normal;font-size:12px;line-height:11.25;font-family:'Times New Roman';-inkscape-font-specification:'Times New Roman, ';letter-spacing:0px;word-spacing:0px;fill:#000000;fill-opacity:1;stroke:none;stroke-width:0.75"
   x="174.85464"
   y="-101.16279"
   id="text1025"
   transform="scale(1,-1)"><tspan
     sodipodi:role="line"
     id="tspan1023"
     x="174.85464"
     y="-101.16279"
     style="stroke-width:0.75">i,j</tspan></text>

<text
   xml:space="preserve"
   style="font-style:normal;font-variant:normal;font-weight:normal;font-stretch:normal;font-size:12px;line-height:11.25;font-family:'Times New Roman';-inkscape-font-specification:'Times New Roman, ';letter-spacing:0px;word-spacing:0px;fill:#000000;fill-opacity:1;stroke:none;stroke-width:0.75"
   x="118.1686"
   y="-104.65117"
   id="text1029"
   transform="scale(1,-1)"><tspan
     sodipodi:role="line"
     id="tspan1027"
     x="118.1686"
     y="-33.999718"
     style="stroke-width:0.75" /></text>

<text
   xml:space="preserve"
   style="font-style:normal;font-variant:normal;font-weight:normal;font-stretch:normal;font-size:12px;line-height:11.25;font-family:'Times New Roman';-inkscape-font-specification:'Times New Roman, ';letter-spacing:0px;word-spacing:0px;fill:#000000;fill-opacity:1;stroke:none;stroke-width:0.75"
   x="119.9128"
   y="-103.34303"
   id="text1033"
   transform="scale(1,-1)"><tspan
     sodipodi:role="line"
     id="tspan1031"
     x="119.9128"
     y="-103.34303"
     style="stroke-width:0.75">i-1,j</tspan></text>

<text
   xml:space="preserve"
   style="font-style:normal;font-variant:normal;font-weight:normal;font-stretch:normal;font-size:12px;line-height:11.25;font-family:'Times New Roman';-inkscape-font-specification:'Times New Roman, ';letter-spacing:0px;word-spacing:0px;fill:#000000;fill-opacity:1;stroke:none;stroke-width:0.75"
   x="230.23256"
   y="-103.34304"
   id="text1037"
   transform="scale(1,-1)"><tspan
     sodipodi:role="line"
     id="tspan1035"
     x="230.23256"
     y="-103.34304"
     style="stroke-width:0.75">i+1,j</tspan></text>

<text
   xml:space="preserve"
   style="font-style:normal;font-variant:normal;font-weight:normal;font-stretch:normal;font-size:12px;line-height:11.25;font-family:'Times New Roman';-inkscape-font-specification:'Times New Roman, ';letter-spacing:0px;word-spacing:0px;fill:#000000;fill-opacity:1;stroke:none;stroke-width:0.75"
   x="-7.4127908"
   y="9.15697"
   id="text1041"
   transform="scale(1,-1)"><tspan
     sodipodi:role="line"
     id="tspan1039"
     x="-7.4127908"
     y="9.15697"
     style="stroke-width:0.75">1,1</tspan></text>

<text
   xml:space="preserve"
   style="font-style:normal;font-variant:normal;font-weight:normal;font-stretch:normal;font-size:12px;line-height:11.25;font-family:'Times New Roman';-inkscape-font-specification:'Times New Roman, ';letter-spacing:0px;word-spacing:0px;fill:#000000;fill-opacity:1;stroke:none;stroke-width:0.75"
   x="338.3721"
   y="-225.43605"
   id="text1045"
   transform="scale(1,-1)"><tspan
     sodipodi:role="line"
     id="tspan1043"
     x="338.3721"
     y="-225.43605"
     style="stroke-width:0.75">Ni,Nj</tspan></text>

</g></svg>